<svg width="7" height="7" viewBox="0 0 7 7" fill="none" xmlns="http://www.w3.org/2000/svg">
<path d="M1.71061 7C0.600386 5.95147 -1.09874 4.15731 0.986549 5.36895C1.13694 5.45633 1.27116 5.53373 1.39047 5.60195H2.14504C2.00023 4.63109 1.71061 2.50295 1.71061 1.75733C1.71061 1.0117 2.28985 1.0583 2.57948 1.17481C2.8691 1.87383 3.59316 3.48158 4.17241 4.32041C4.75166 5.15924 4.89647 4.66992 4.89647 4.32041C4.70339 2.92236 4.43307 0.102972 4.89647 0.00976942C5.47572 -0.106734 5.91015 0.825298 6.92383 2.45635C7.21346 3.38838 6.63421 2.92237 5.91015 1.75733C5.18609 0.59229 5.18609 1.87383 5.47572 2.68936C5.70742 3.34178 5.86188 4.04857 5.91015 4.32041C5.76534 4.82526 5.30194 5.78836 4.60685 5.60195C3.91175 5.41555 3.54489 4.66992 3.44835 4.32041V6.41748L1.71061 7Z" fill="#00D865" fill-opacity="0.81"/>
</svg>
